<svg width="313" height="184" viewBox="0 0 313 184" fill="none" xmlns="http://www.w3.org/2000/svg">
<path d="M24.6055 2.2616H134.334V0H184.089V2.2616H294.27C295.244 2.2616 296.209 2.45358 297.11 2.82659C298.01 3.19959 298.829 3.74632 299.518 4.43554C300.207 5.12476 300.754 5.94299 301.127 6.84351C301.5 7.74402 301.692 8.70919 301.692 9.6839V159.936C301.692 161.904 300.91 163.792 299.518 165.184C298.126 166.576 296.238 167.358 294.27 167.358H24.6055C23.6308 167.358 22.6656 167.166 21.7651 166.793C20.8646 166.42 20.0463 165.873 19.3571 165.184C18.6678 164.495 18.1211 163.677 17.7481 162.776C17.3751 161.876 17.1831 160.91 17.1831 159.936V9.6839C17.1831 8.70919 17.3751 7.74402 17.7481 6.8435C18.1211 5.94298 18.6678 5.12476 19.3571 4.43553C20.0463 3.74631 20.8646 3.19959 21.7651 2.82658C22.6656 2.45358 23.6308 2.26159 24.6055 2.2616Z" fill="#3F3D56"/>
<path d="M27.134 15.3789H291.741V164.644H27.134V15.3789Z" fill="#81D4FA"/>
<path d="M42.3246 34.376H54.8677V21.833H42.3246V34.376ZM54.3223 33.8307H42.87V22.3784H54.3223V33.8307Z" fill="#3F3D56"/>
<path d="M9.75372 161.93H35.5776V160.07C35.5776 160.021 35.5872 159.973 35.6057 159.928C35.6242 159.884 35.6514 159.843 35.6856 159.809C35.7199 159.774 35.7606 159.747 35.8054 159.729C35.8501 159.71 35.8981 159.701 35.9465 159.701H44.8004C44.8489 159.701 44.8969 159.71 44.9416 159.729C44.9864 159.747 45.027 159.774 45.0613 159.809C45.0956 159.843 45.1227 159.884 45.1413 159.928C45.1598 159.973 45.1693 160.021 45.1693 160.07V161.93H50.703V160.07C50.703 160.021 50.7126 159.973 50.7311 159.928C50.7496 159.884 50.7768 159.843 50.8111 159.809C50.8453 159.774 50.886 159.747 50.9308 159.729C50.9755 159.71 51.0235 159.701 51.0719 159.701H59.9258C59.9743 159.701 60.0223 159.71 60.067 159.729C60.1118 159.747 60.1525 159.774 60.1867 159.809C60.221 159.843 60.2482 159.884 60.2667 159.928C60.2852 159.973 60.2948 160.021 60.2948 160.07V161.93H65.8285V160.07C65.8285 160.021 65.838 159.973 65.8565 159.928C65.8751 159.884 65.9022 159.843 65.9365 159.809C65.9707 159.774 66.0114 159.747 66.0562 159.729C66.101 159.71 66.1489 159.701 66.1974 159.701H75.0513C75.0997 159.701 75.1477 159.71 75.1925 159.729C75.2372 159.747 75.2779 159.774 75.3121 159.809C75.3464 159.843 75.3736 159.884 75.3921 159.928C75.4107 159.973 75.4202 160.021 75.4202 160.07V161.93H80.9539V160.07C80.9539 160.021 80.9634 159.973 80.9819 159.928C81.0005 159.884 81.0277 159.843 81.0619 159.809C81.0962 159.774 81.1369 159.747 81.1816 159.729C81.2264 159.71 81.2743 159.701 81.3228 159.701H90.1767C90.2251 159.701 90.2731 159.71 90.3179 159.729C90.3626 159.747 90.4033 159.774 90.4376 159.809C90.4718 159.843 90.499 159.884 90.5175 159.928C90.5361 159.973 90.5456 160.021 90.5456 160.07V161.93H96.0793V160.07C96.0793 160.021 96.0889 159.973 96.1074 159.928C96.1259 159.884 96.1531 159.843 96.1873 159.809C96.2216 159.774 96.2623 159.747 96.307 159.729C96.3518 159.71 96.3998 159.701 96.4482 159.701H105.302C105.351 159.701 105.399 159.71 105.443 159.729C105.488 159.747 105.529 159.774 105.563 159.809C105.597 159.843 105.624 159.884 105.643 159.928C105.661 159.973 105.671 160.021 105.671 160.07V161.93H111.205V160.07C111.205 160.021 111.214 159.973 111.233 159.928C111.251 159.884 111.279 159.843 111.313 159.809C111.347 159.774 111.388 159.747 111.432 159.729C111.477 159.71 111.525 159.701 111.574 159.701H120.428C120.476 159.701 120.524 159.71 120.569 159.729C120.613 159.747 120.654 159.774 120.688 159.809C120.723 159.843 120.75 159.884 120.768 159.928C120.787 159.973 120.796 160.021 120.796 160.07V161.93H126.33V160.07C126.33 160.021 126.34 159.973 126.358 159.928C126.377 159.884 126.404 159.843 126.438 159.809C126.472 159.774 126.513 159.747 126.558 159.729C126.603 159.71 126.651 159.701 126.699 159.701H196.055C196.103 159.701 196.151 159.71 196.196 159.729C196.241 159.747 196.281 159.774 196.316 159.809C196.35 159.843 196.377 159.884 196.395 159.928C196.414 159.973 196.424 160.021 196.424 160.07V161.93H201.957V160.07C201.957 160.021 201.967 159.973 201.985 159.928C202.004 159.884 202.031 159.843 202.065 159.809C202.1 159.774 202.14 159.747 202.185 159.729C202.23 159.71 202.278 159.701 202.326 159.701H211.18C211.229 159.701 211.277 159.71 211.321 159.729C211.366 159.747 211.407 159.774 211.441 159.809C211.475 159.843 211.502 159.884 211.521 159.928C211.539 159.973 211.549 160.021 211.549 160.07V161.93H217.083V160.07C217.083 160.021 217.092 159.973 217.111 159.928C217.129 159.884 217.156 159.843 217.191 159.809C217.225 159.774 217.266 159.747 217.31 159.729C217.355 159.71 217.403 159.701 217.452 159.701H226.306C226.354 159.701 226.402 159.71 226.447 159.729C226.491 159.747 226.532 159.774 226.566 159.809C226.601 159.843 226.628 159.884 226.646 159.928C226.665 159.973 226.674 160.021 226.674 160.07V161.93H232.208V160.07C232.208 160.021 232.218 159.973 232.236 159.928C232.255 159.884 232.282 159.843 232.316 159.809C232.35 159.774 232.391 159.747 232.436 159.729C232.481 159.71 232.529 159.701 232.577 159.701H241.431C241.479 159.701 241.527 159.71 241.572 159.729C241.617 159.747 241.658 159.774 241.692 159.809C241.726 159.843 241.753 159.884 241.772 159.928C241.79 159.973 241.8 160.021 241.8 160.07V161.93H247.334V160.07C247.334 160.021 247.343 159.973 247.362 159.928C247.38 159.884 247.407 159.843 247.442 159.809C247.476 159.774 247.517 159.747 247.561 159.729C247.606 159.71 247.654 159.701 247.702 159.701H256.556C256.605 159.701 256.653 159.71 256.698 159.729C256.742 159.747 256.783 159.774 256.817 159.809C256.851 159.843 256.879 159.884 256.897 159.928C256.916 159.973 256.925 160.021 256.925 160.07V161.93H262.459V160.07C262.459 160.021 262.468 159.973 262.487 159.928C262.506 159.884 262.533 159.843 262.567 159.809C262.601 159.774 262.642 159.747 262.687 159.729C262.731 159.71 262.779 159.701 262.828 159.701H271.682C271.73 159.701 271.778 159.71 271.823 159.729C271.868 159.747 271.908 159.774 271.943 159.809C271.977 159.843 272.004 159.884 272.023 159.928C272.041 159.973 272.051 160.021 272.051 160.07V161.93H277.584V160.07C277.584 160.021 277.594 159.973 277.612 159.928C277.631 159.884 277.658 159.843 277.692 159.809C277.727 159.774 277.767 159.747 277.812 159.729C277.857 159.71 277.905 159.701 277.953 159.701H286.807C286.856 159.701 286.904 159.71 286.948 159.729C286.993 159.747 287.034 159.774 287.068 159.809C287.102 159.843 287.129 159.884 287.148 159.928C287.167 159.973 287.176 160.021 287.176 160.07V161.93H304.146C306.494 161.93 308.746 162.863 310.407 164.523C312.067 166.184 313 168.436 313 170.784V174.788C313 177.136 312.067 179.388 310.407 181.048C308.746 182.709 306.494 183.642 304.146 183.642H9.75372C7.40552 183.642 5.1535 182.709 3.49307 181.048C1.83264 179.388 0.899811 177.136 0.899811 174.788V170.784C0.899811 168.436 1.83264 166.184 3.49307 164.523C5.1535 162.863 7.40552 161.93 9.75372 161.93Z" fill="#3F3D56"/>
<path d="M43.4916 98.5524H128.687V50.0503H43.4916V98.5524ZM127.843 97.7088H44.3351V50.8938H127.843V97.7088Z" fill="#3F3D56"/>
<path d="M199.541 108.253H275.458V61.0161H199.541V108.253ZM274.614 107.409H200.385V61.8596H274.614V107.409Z" fill="#3F3D56"/>
<path d="M239.99 90.1169L240.063 89.1737C240.281 87.2153 239.628 85.0752 237.814 82.8993C236.182 80.9766 235.275 79.5623 235.275 77.93C235.275 76.0803 236.436 74.8472 238.721 74.8109C240.028 74.8056 241.306 75.1977 242.384 75.9353L243.255 73.6502C242.058 72.7795 239.99 72.1992 238.068 72.1992C233.897 72.1992 232.011 74.7747 232.011 77.5309C232.011 79.9976 233.389 81.7748 235.13 83.842C236.726 85.728 237.306 87.324 237.198 89.1737L237.161 90.1169L239.99 90.1169ZM240.788 95.1949C240.808 94.899 240.766 94.6022 240.665 94.3234C240.564 94.0446 240.406 93.7897 240.202 93.575C239.997 93.3602 239.75 93.1902 239.477 93.0757C239.203 92.9612 238.909 92.9047 238.612 92.9098C237.343 92.9098 236.472 93.8526 236.472 95.1949C236.46 95.4858 236.507 95.7761 236.61 96.0483C236.713 96.3206 236.87 96.5693 237.072 96.7793C237.273 96.9894 237.515 97.1565 237.783 97.2707C238.051 97.3849 238.339 97.4438 238.63 97.4438C238.921 97.4438 239.21 97.3849 239.477 97.2707C239.745 97.1565 239.987 96.9894 240.189 96.7793C240.39 96.5693 240.547 96.3206 240.65 96.0483C240.753 95.7761 240.8 95.4858 240.788 95.1949Z" fill="#D0CDE1"/>
<path d="M88.5797 79.573L88.6524 78.6298C88.8699 76.6713 88.2171 74.5312 86.4036 72.3553C84.7714 70.4327 83.8646 69.0183 83.8646 67.3861C83.8646 65.5364 85.0253 64.3032 87.3104 64.267C88.6172 64.2617 89.8949 64.6538 90.9737 65.3914L91.8442 63.1063C90.6471 62.2356 88.5797 61.6553 86.6575 61.6553C82.4863 61.6553 80.6003 64.2307 80.6003 66.987C80.6003 69.4537 81.9787 71.2309 83.7196 73.2981C85.3154 75.184 85.8958 76.78 85.787 78.6298L85.7508 79.5729L88.5797 79.573ZM89.3777 84.6509C89.3972 84.355 89.3552 84.0583 89.2542 83.7794C89.1531 83.5006 88.9954 83.2458 88.7909 83.031C88.5864 82.8163 88.3396 82.6463 88.066 82.5318C87.7925 82.4173 87.4981 82.3608 87.2016 82.3658C85.932 82.3658 85.0615 83.3086 85.0615 84.6509C85.0495 84.9418 85.0965 85.2321 85.1995 85.5044C85.3026 85.7767 85.4596 86.0253 85.6612 86.2354C85.8628 86.4455 86.1047 86.6126 86.3725 86.7268C86.6404 86.841 86.9285 86.8998 87.2196 86.8998C87.5107 86.8998 87.7989 86.841 88.0667 86.7268C88.3345 86.6126 88.5765 86.4455 88.7781 86.2354C88.9796 86.0253 89.1367 85.7767 89.2397 85.5044C89.3428 85.2321 89.3897 84.9418 89.3777 84.6509Z" fill="#D0CDE1"/>
<path d="M157.947 146.409C137.847 146.409 121.553 130.115 121.553 110.014C121.553 89.9144 137.847 73.6201 157.947 73.6201C178.047 73.6201 194.342 89.9144 194.342 110.014C194.342 130.115 178.047 146.409 157.947 146.409Z" fill="#2F2E41"/>
<path d="M172.004 159.854L182.884 157.884L179.355 135.167L168.475 137.136L172.004 159.854Z" fill="#2F2E41"/>
<path d="M146.716 141.075L157.595 139.105L161.124 158.598L150.244 160.568L146.716 141.075Z" fill="#2F2E41"/>
<path d="M142.973 161.63C142.595 159.759 146.333 157.427 151.321 156.42C156.309 155.413 160.658 156.113 161.036 157.983C161.414 159.854 157.676 162.186 152.688 163.193C147.7 164.2 143.35 163.5 142.973 161.63Z" fill="#2F2E41"/>
<path d="M165.633 161.042C165.383 159.15 169.269 157.075 174.314 156.407C179.358 155.739 183.651 156.73 183.901 158.622C184.152 160.514 180.266 162.589 175.221 163.257C170.176 163.926 165.884 162.934 165.633 161.042Z" fill="#2F2E41"/>
<path d="M155.399 113.551C148.53 113.551 142.961 107.982 142.961 101.112C142.961 94.2428 148.53 88.6738 155.399 88.6738C162.269 88.6738 167.838 94.2428 167.838 101.112C167.838 107.982 162.269 113.551 155.399 113.551Z" fill="white"/>
<path d="M150.287 100.8C147.997 100.8 146.141 98.9439 146.141 96.654C146.141 94.3641 147.997 92.5078 150.287 92.5078C152.577 92.5078 154.433 94.3641 154.433 96.654C154.433 98.9439 152.577 100.8 150.287 100.8Z" fill="#3F3D56"/>
<path d="M186.657 70.4214C187.205 56.9477 175.592 45.5353 160.72 44.9312C145.848 44.3271 133.348 54.76 132.801 68.2337C132.254 81.7075 142.592 84.7688 157.464 85.3729C172.336 85.977 186.11 83.8951 186.657 70.4214Z" fill="white"/>
<path d="M123.066 108.952C113.27 106.707 105.9 102.394 106.605 99.3183C107.31 96.243 115.822 95.5703 125.618 97.8157C135.414 100.061 142.784 104.374 142.079 107.45C141.374 110.525 132.862 111.198 123.066 108.952Z" fill="#2F2E41"/>
<path d="M194.507 120.833C184.711 118.588 177.341 114.274 178.046 111.199C178.751 108.124 187.263 107.451 197.059 109.697C206.855 111.942 214.225 116.255 213.52 119.33C212.815 122.406 204.303 123.078 194.507 120.833Z" fill="#2F2E41"/>
<path d="M167.943 124.357C168.137 125.429 168.118 126.528 167.887 127.592C167.656 128.657 167.218 129.665 166.598 130.56C165.977 131.455 165.186 132.219 164.271 132.808C163.355 133.397 162.332 133.8 161.26 133.994C160.189 134.188 159.09 134.169 158.025 133.938C156.961 133.708 155.953 133.269 155.058 132.649C154.163 132.028 153.399 131.238 152.81 130.322C152.221 129.406 151.818 128.383 151.624 127.312C150.808 122.805 154.292 121.21 158.799 120.395C163.305 119.579 167.127 119.851 167.943 124.357Z" fill="white"/>
<path d="M236.508 5.53467H296.35V62.4581H236.508V5.53467Z" fill="#D0CDE1"/>
<path d="M243.309 12.3345H289.55V47.6956H243.309V12.3345Z" fill="white"/>
<path d="M264.443 51.8677H289.596V53.1915H264.443V51.8677Z" fill="#F2F2F2"/>
<path d="M264.443 55.8389H289.596V57.1627H264.443V55.8389Z" fill="#F2F2F2"/>
<path d="M281.322 35.3199C278.398 35.3199 276.027 32.9492 276.027 30.0247C276.027 27.1002 278.398 24.7295 281.322 24.7295C284.246 24.7295 286.617 27.1002 286.617 30.0247C286.617 32.9492 284.246 35.3199 281.322 35.3199Z" fill="#3F3D56"/>
<path d="M266.429 35.3199C263.505 35.3199 261.134 32.9492 261.134 30.0247C261.134 27.1002 263.505 24.7295 266.429 24.7295C269.354 24.7295 271.725 27.1002 271.725 30.0247C271.725 32.9492 269.354 35.3199 266.429 35.3199Z" fill="#81D4FA"/>
<path d="M251.536 35.3199C248.612 35.3199 246.241 32.9492 246.241 30.0247C246.241 27.1002 248.612 24.7295 251.536 24.7295C254.461 24.7295 256.832 27.1002 256.832 30.0247C256.832 32.9492 254.461 35.3199 251.536 35.3199Z" fill="#E6E6E6"/>
<path d="M208.045 115.755H267.887V172.678H208.045V115.755Z" fill="#D0CDE1"/>
<path d="M214.845 122.555H261.086V157.916H214.845V122.555Z" fill="white"/>
<path d="M234.701 128.366H250.912V144.577H234.701V128.366Z" fill="#81D4FA"/>
<path d="M244.706 132.42V152.105H225.021V132.42H244.706ZM225.874 151.251H243.852V133.274H225.874V151.251Z" fill="#3F3D56"/>
<path d="M235.981 161.426H261.133V162.75H235.981V161.426Z" fill="#F2F2F2"/>
<path d="M237.966 121.712C236.504 121.712 235.319 120.527 235.319 119.065C235.319 117.602 236.504 116.417 237.966 116.417C239.428 116.417 240.614 117.602 240.614 119.065C240.614 120.527 239.428 121.712 237.966 121.712Z" fill="#3F3D56"/>
<path d="M52.2422 98.7134H112.084V155.637H52.2422V98.7134Z" fill="#D0CDE1"/>
<path d="M59.0423 105.514H105.284V140.875H59.0423V105.514Z" fill="white"/>
<path d="M77.1889 133.196H87.1367V136.144H77.1889V133.196Z" fill="#3F3D56"/>
<path d="M65.1624 110.244H99.1631V111.508H65.1624V110.244Z" fill="#3F3D56"/>
<path d="M65.1624 114.245H99.1631V115.509H65.1624V114.245Z" fill="#3F3D56"/>
<path d="M65.1624 118.246H99.1631V119.509H65.1624V118.246Z" fill="#3F3D56"/>
<path d="M65.1624 122.247H99.1631V123.51H65.1624V122.247Z" fill="#3F3D56"/>
<path d="M65.1624 126.247H99.1631V127.51H65.1624V126.247Z" fill="#3F3D56"/>
<path d="M80.1769 144.384H105.329V145.708H80.1769V144.384Z" fill="#F2F2F2"/>
<path d="M70.2484 147.694H105.329V149.018H70.2484V147.694Z" fill="#F2F2F2"/>
<path d="M82.1629 104.671C80.7007 104.671 79.5153 103.485 79.5153 102.023C79.5153 100.561 80.7007 99.3755 82.1629 99.3755C83.6252 99.3755 84.8105 100.561 84.8105 102.023C84.8105 103.485 83.6252 104.671 82.1629 104.671Z" fill="#3F3D56"/>
</svg>
